<svg width="94" height="70" viewBox="0 0 94 70" fill="none" xmlns="http://www.w3.org/2000/svg">
<path d="M75.125 10C71.3219 10 67.9531 11.7438 65.6594 14.4313C65.7156 15.0281 65.75 15.6375 65.75 16.25C65.75 19.7312 64.7781 22.9844 63.1156 25.7844C64.5688 31.0781 69.375 35 75.125 35C82.0188 35 87.625 29.3938 87.625 22.5C87.625 15.6062 82.0188 10 75.125 10Z" fill="#6C5DD3"/>
<path d="M28.25 16.25C28.25 15.6375 28.2844 15.0281 28.3406 14.4313C26.0469 11.7438 22.6781 10 18.875 10C11.9812 10 6.375 15.6062 6.375 22.5C6.375 29.3938 11.9812 35 18.875 35C24.625 35 29.4281 31.0781 30.8812 25.7844C29.2219 22.9844 28.25 19.7312 28.25 16.25Z" fill="#6C5DD3"/>
<path d="M47 31.875C38.3844 31.875 31.375 24.8656 31.375 16.25C31.375 7.63438 38.3844 0.625 47 0.625C55.6156 0.625 62.625 7.63438 62.625 16.25C62.625 24.8656 55.6156 31.875 47 31.875Z" fill="#6C5DD3"/>
<path d="M17.4875 41.25H9.5C4.33125 41.25 0.125 45.4562 0.125 50.625V63.125C0.125 64.8531 1.525 66.25 3.25 66.25H15.75V47.5C15.75 45.2156 16.4125 43.0969 17.4875 41.25Z" fill="#6C5DD3"/>
<path d="M84.5 41.25H76.5094C77.5875 43.0969 78.25 45.2156 78.25 47.5V66.25H90.75C92.4781 66.25 93.875 64.8531 93.875 63.125V50.625C93.875 45.4562 89.6687 41.25 84.5 41.25Z" fill="#6C5DD3"/>
<path d="M72 69.375H22C20.275 69.375 18.875 67.9781 18.875 66.25V47.5C18.875 42.3312 23.0812 38.125 28.25 38.125H65.75C70.9188 38.125 75.125 42.3312 75.125 47.5V66.25C75.125 67.9781 73.7281 69.375 72 69.375Z" fill="#6C5DD3"/>
</svg>
