<svg width="86" height="83" viewBox="0 0 86 83" fill="none" xmlns="http://www.w3.org/2000/svg">
<g clip-path="url(#clip0_2108_18)">
<path d="M59.57 83.0003C59.22 83.0003 58.45 83.0003 58.1 82.6503H57.75L35 73.1303L12.32 82.6503C10.85 83.3503 9.03 83.0003 7.91 82.3003C6.79 81.6003 6.09 80.1303 6.09 78.6603V27.3503C6.09 19.3003 12.32 13.0703 20.37 13.0703H49.7C57.75 13.0703 63.98 19.3003 63.98 27.3503V78.6603C63.98 80.1303 63.28 81.6003 62.16 82.3003C61.39 82.6503 60.27 83.0003 59.57 83.0003ZM20.37 20.0003C16.73 20.0003 13.44 23.2903 13.44 26.9303V74.1803L35 65.0803L56.63 74.2503V26.9303C56.63 23.2903 53.34 20.0003 49.7 20.0003H20.37Z" fill="#6C5DD3"/>
</g>
<circle cx="64" cy="22" r="22" fill="#FF754C"/>
<defs>
<clipPath id="clip0_2108_18">
<rect width="70" height="70" fill="white" transform="translate(0 13)"/>
</clipPath>
</defs>
</svg>
